<svg xmlns="http://www.w3.org/2000/svg" version="1.1" xmlns:xlink="http://www.w3.org/1999/xlink" xmlns:svgjs="http://svgjs.dev/svgjs" viewBox="0 0 1920 1080" class="overflow-hidden rounded-md drop-shadow-lg transition duration-300" style="overflow: hidden; height: 85vh;"><rect width="1920" height="1080" fill="#30264c"/><g clip-path="url(&quot;#SvgjsClipPath1565&quot;)"><g transform="matrix(-0.6596129018037032,-0.9420248509323402,0.9420248509323402,-0.6596129018037032,1021.9737818590525,1765.0240187196387)"><path d="M0,-1080C-12.062632982820004,-968.9886969891747,-91.73362914803822,-599.3612032834849,-72.37579789692002,-413.9321819350487C-53.01796664580182,-228.5031605866125,115.88562956617517,-107.86791043222411,116.1469875067092,32.574128090616995C116.40834544724322,173.0161666134581,-69.97851875638555,242.29976949019135,-70.80765025371583,428.7200492019979C-71.63678175104612,615.1403289138044,99.5999636930508,950.4837902326057,111.17219852272748,1151.0958063614562C122.74443335240417,1351.7078224903066,17.154458478132238,1464.2414470353438,-1.3742412756556774,1632.3921459751011C-19.902941029443593,1800.5428449148585,-0.22904021260927956,2072.065357662517,0,2160L 1920 2160 L 1920 -1080 Z" fill="url(&quot;#SvgjsLinearGradient1558&quot;)"/><path d="M274.2857142857143,-1080C288.69605404024776,-945.0982121735576,381.615242901405,-548.0607203874085,360.7477528129152,-270.5892730413458C339.88026272442545,6.882174304716898,149.2037483593938,325.9797284702104,149.08077375477575,584.828684076376C148.95779915015768,843.6776396825417,339.1424150967171,1019.9759079417108,360.0099051852069,1282.5044605956482C380.87739527369666,1545.0330132495856,288.5730794356297,2013.750743432608,274.2857142857143,2160L 1920 2160 L 1920 -1080 Z" fill="url(&quot;#SvgjsLinearGradient1559&quot;)"/><path d="M548.5714285714286,-1080C527.6713764923454,-1006.1262139710601,440.33175391657335,-816.6183301101364,423.1711160969296,-636.7572838263607C406.01047827728587,-456.8962375425849,408.52414358419816,-212.67039052255922,445.60760165356623,-0.833722297345318C482.6910597229343,211.00294592786855,617.0295461069345,455.69428910859835,645.6718645131382,634.2627255249226C674.3141829193419,812.8311619412469,628.4259911738321,905.8839895582577,617.4615120907883,1070.5768962006007C606.4970330077446,1235.2698028429438,591.3666706014357,1440.8496480790811,579.8849900148757,1622.420165378981C568.4033094283158,1803.9906826788808,553.7903554786698,2070.403360896497,548.5714285714286,2160L 1920 2160 L 1920 -1080 Z" fill="url(&quot;#SvgjsLinearGradient1560&quot;)"/><path d="M822.8571428571428,-1080C810.5645944900755,-985.8473248184051,743.7248607075533,-735.294438054825,749.1018526547388,-515.0839489104306C754.4788446019243,-294.87345976603626,854.8141105715299,8.444592438525461,855.1190945402556,241.26293486636612C855.4240785089812,474.08127729420676,759.500001297727,655.3183084458705,750.9317564670929,881.8261056566134C742.3635116364588,1108.3339028673565,791.7220611581098,1387.2807357402598,803.7096255564514,1600.3097181308242C815.6971899547931,1813.3387005213885,819.6658899736942,2066.7182863551375,822.8571428571428,2160L 1920 2160 L 1920 -1080 Z" fill="url(&quot;#SvgjsLinearGradient1561&quot;)"/><path d="M1097.142857142857,-1080C1088.5655170140822,-967.5071100748245,1028.1346714489462,-617.389505571823,1045.6788163702074,-405.0426604489468C1063.2229612914687,-192.69581532607057,1177.2893186799993,-35.813600899154295,1202.407726670425,194.08107073725728C1227.5261346608509,423.9757423736688,1208.5141629855007,756.7601228359393,1196.3892643127626,974.3253693695228C1184.2643656400246,1191.8906159031064,1146.1994024956484,1301.8601115003455,1129.6583346339976,1499.4725499387584C1113.1172667723467,1697.0849883771714,1102.5621033913806,2049.91209165646,1097.142857142857,2160L 1920 2160 L 1920 -1080 Z" fill="url(&quot;#SvgjsLinearGradient1562&quot;)"/><path d="M1371.4285714285716,-1080C1387.5633171517911,-986.2126048518174,1469.0787887430668,-650.4340074351929,1468.2370457678896,-517.2756291109049C1467.3953027927125,-384.11725078661686,1389.4790130281517,-406.69372996152833,1366.378113577509,-281.0497300542717C1343.2772141268665,-155.4057301470151,1328.302099358973,40.968213553321334,1329.6316490640336,236.5883703326349C1330.9611987690942,432.20852711194846,1372.78520539154,717.3489710501846,1374.3554118078723,892.6712106216096C1375.9256182242045,1067.9934501930347,1332.6887463070082,1175.0935206443578,1339.052887562027,1288.5218077611853C1345.417028817046,1401.9500948780128,1407.144312026895,1427.9945679494383,1412.5402593379858,1573.2409333225742C1417.9362066490767,1718.48729869571,1378.280519413474,2062.206822220429,1371.4285714285716,2160L 1920 2160 L 1920 -1080 Z" fill="url(&quot;#SvgjsLinearGradient1563&quot;)"/><path d="M1645.7142857142856,-1080C1632.5007292363098,-992.1948343861966,1559.6328788276555,-729.8731234220098,1566.4329468464305,-553.1690063171793C1573.2330148652054,-376.4648892123488,1678.301081250756,-197.9938493855467,1686.5146938269352,-19.775297371016805C1694.7283064031144,158.44325464351306,1626.0828196727691,347.8485445507888,1615.7146223035054,516.1423057699999C1605.3464249342417,684.436066989211,1604.7333740335816,785.0965058709988,1624.3055096113526,989.9872699442498C1643.8776451891235,1194.8780340175008,1729.5793064196428,1550.4847685335471,1733.1474357701316,1745.4868902095054C1736.7155651206203,1940.4890118854637,1660.28647739026,2090.914481701584,1645.7142857142856,2160L 1920 2160 L 1920 -1080 Z" fill="url(&quot;#SvgjsLinearGradient1564&quot;)"/></g></g><defs><linearGradient x1="0.1" y1="0" x2="0" y2="1" id="SvgjsLinearGradient1558"><stop stop-color="#30264c" offset="0"/><stop stop-color="#2a264c" offset="0"/></linearGradient><linearGradient x1="0.1" y1="0" x2="0" y2="1" id="SvgjsLinearGradient1559"><stop stop-color="#2b2243" offset="0"/><stop stop-color="#252243" offset="0.14285714285714285"/></linearGradient><linearGradient x1="0.1" y1="0" x2="0" y2="1" id="SvgjsLinearGradient1560"><stop stop-color="#251d3b" offset="0"/><stop stop-color="#201d3b" offset="0.2857142857142857"/></linearGradient><linearGradient x1="0.1" y1="0" x2="0" y2="1" id="SvgjsLinearGradient1561"><stop stop-color="#201932" offset="0"/><stop stop-color="#1c1932" offset="0.42857142857142855"/></linearGradient><linearGradient x1="0.1" y1="0" x2="0" y2="1" id="SvgjsLinearGradient1562"><stop stop-color="#1a1529" offset="0"/><stop stop-color="#171529" offset="0.5714285714285714"/></linearGradient><linearGradient x1="0.1" y1="0" x2="0" y2="1" id="SvgjsLinearGradient1563"><stop stop-color="#151021" offset="0"/><stop stop-color="#121021" offset="0.7142857142857143"/></linearGradient><linearGradient x1="0.1" y1="0" x2="0" y2="1" id="SvgjsLinearGradient1564"><stop stop-color="#0f0c18" offset="0"/><stop stop-color="#0d0c18" offset="0.8571428571428571"/></linearGradient><clipPath id="SvgjsClipPath1565"><rect width="1920" height="1080"/></clipPath></defs></svg>